<svg version="1.1" id="Layer_1" xmlns="http://www.w3.org/2000/svg" xmlns:xlink="http://www.w3.org/2000/svg" x="0px" y="0px" viewBox="0 300 1000 1000"><path id="desk" class="st0" d="M789.5,666.3H169.2c-5,0-9-4-9-9l0,0c0-5,4-9,9-9h620.3c5,0,9,4,9,9l0,0   C798.5,662.3,794.5,666.3,789.5,666.3z"></path><g class="svg-wrapper" id="name-box" style="translate: none; rotate: none; scale: none; transform-origin: 0px 0px; transform: matrix(1, 0, 0, 1, 0, 0);" data-svg-origin="45 414" transform="matrix(1,0,0,1,0,0)"><rect id="" x="45" y="414" class="shape" width="350" height="46.7"></rect><text x="100" y="435" font-size="15" fill="black" class="text-space-4  uppercase font-monster">Shardul Parlikar</text><text x="166" y="451" font-size="10" fill="black" class="text-space-2  text font-monster">Software Devloper</text></g><g id="top-book" style="translate: none; rotate: none; scale: none; transform-origin: 0px 0px; transform: matrix(1, 0, 0, 1, 0, 0);" data-svg-origin="262.6000061035156 481" transform="matrix(1,0,0,1,0,0)">// these are line inside books<line id="XMLID_164_" class="st3" x1="279.5" y1="503.6" x2="383.9" y2="503.6"></line><line id="XMLID_173_" class="st3" x1="279.5" y1="513.2" x2="383.9" y2="513.2"></line>// this path is for red  line in 1st book<path id="XMLID_161_" class="st4" d="M285.9,525.3c-9.6,0-17.3-7.8-17.3-17.3s7.8-17.3,17.3-17.3h99.7l4-6H285.9   c-12.9,0-23.3,10.5-23.3,23.3l0,0c0,12.9,10.5,23.3,23.3,23.3h103.7l-4-6H285.9z"></path>// this path is for blue color line in 1st book<path id="XMLID_182_" class="st3" d="M285.9,525.3c-9.6,0-17.3-7.8-17.3-17.3s7.8-17.3,17.3-17.3h99.7l4-6H285.9   c-12.9,0-23.3,10.5-23.3,23.3l0,0c0,12.9,10.5,23.3,23.3,23.3h103.7l-4-6H285.9z"></path>// these is for book shadow<rect id="top-book-computer-shadow" x="348.9" y="481" class="st5" width="18.4" height="46.7"></rect></g><g id="middle-book" style="translate: none; rotate: none; scale: none; transform-origin: 0px 0px; transform: matrix(1, 0, 0, 1, 0, 0);" data-svg-origin="182.1999969482422 579.2000122070312" transform="matrix(1,0,0,1,0,0)">// this is for green color of middle book<path id="XMLID_157_" class="st6" d="M200.9,617.8H189c-3.7,0-6.8-3-6.8-6.8v-25c0-3.7,3-6.8,6.8-6.8h189.9c3.7,0,6.8,3,6.8,6.8   v25C385.7,614.8,382.7,617.8,378.9,617.8z"></path>// this is for text of middle book<text x="220" y="605.5" font-size="22" fill="white" style="letter-spacing: 2px;">Vue JS</text>// this is for blue line outside green box in middle book<path id="XMLID_146_" class="st3" d="M378.9,617.8H189c-3.7,0-6.8-3-6.8-6.8v-25c0-3.7,3-6.8,6.8-6.8h189.9c3.7,0,6.8,3,6.8,6.8   v25C385.7,614.8,382.7,617.8,378.9,617.8z"></path>// this is for middle book shadow<path id="middle-book-computer-shadow" class="st5" d="M378.9,579.3h-30v15c0,9.4,7.6,17.1,17.1,17.1h19.7c0-0.1,0-0.2,0-0.3v-25   C385.7,582.3,382.7,579.3,378.9,579.3z"></path></g><g id="new-book" style="translate: none; rotate: none; scale: none; transform-origin: 0px 0px; transform: matrix(1, 0, 0, 1, 0, 0);" data-svg-origin="182.1999969482422 525" transform="matrix(1,0,0,1,0,0)">// this is for yellow color of new book<path id="XMLID_157_" class="stYellow" d="M378.9,573.8H189c-3.7,0-6.8-3-6.8-6.8v-25c0-3.7,3-6.8,6.8-6.8h189.9c3.7,0,6.8,3,6.8,6.8   v25C385.7,614.8,382.7,617.8,378.9,617.8z"></path>// this is for text of new book<text x="220" y="560.5" font-size="22" fill="white" style="letter-spacing: 2px;">javaScript</text>// this is for blue line outside yello of new book<path id="XMLID_146_" class="st3" d="M378.9,573.8H189c-3.7,0-6.8-3-6.8-6.8v-25c0-3.7,3-6.8,6.8-6.8h189.9c3.7,0,6.8,1,6.8,2.8   v25C385.7,614.8,382.7,617.8,378.9,617.8z"></path>// this is for shadow of new book<rect id="new-book-computer-shadow" x="348.9" y="525" class="st5" width="18.4" height="46.7"></rect></g><g id="bottom-book" style="translate: none; rotate: none; scale: none; transform-origin: 0px 0px; transform: matrix(1, 0, 0, 1, 0, 0);" data-svg-origin="206.5 619.5" transform="matrix(1,0,0,1,0,0)"><path id="XMLID_35_" class="st1" d="M432.4,625.6h-220c1.3,3.2,2,7.2,2,11.4s-0.7,8.1-2,11.4h219.9c-1.3-3.2-2-7.2-2-11.4   C430.4,632.7,431.1,628.8,432.4,625.6z"></path><rect id="XMLID_156_" x="206.5" y="619.5" class="st7" width="231.9" height="6"></rect><rect id="XMLID_32_" x="206.5" y="619.5" class="st3" width="231.9" height="6"></rect><rect id="XMLID_147_" x="206.5" y="648.3" class="st8" width="231.9" height="6"></rect><rect id="XMLID_39_" x="206.5" y="648.3" class="st7" width="231.9" height="6"></rect><rect id="XMLID_37_" x="206.5" y="648.3" class="st3" width="231.9" height="6"></rect><line id="XMLID_145_" class="st3" x1="214.9" y1="632.5" x2="430.4" y2="632.5"></line><line id="XMLID_151_" class="st3" x1="214.9" y1="640.5" x2="430.4" y2="640.5"></line><path id="XMLID_158_" class="st3" d="M432.4,625.6h-220c1.3,3.2,2,7.2,2,11.4s-0.7,8.1-2,11.4h219.9c-1.3-3.2-2-7.2-2-11.4   C430.4,632.7,431.1,628.8,432.4,625.6z"></path></g><g id="computer"><path id="XMLID_69_" class="st9" d="M553.6,633l-3-33.7h-49.4l-3,33.7c-0.7,7.8-5.4,15.3-12.8,21.3v0.1h81v-0.1   C559,648.3,554.3,640.8,553.6,633z"></path><polygon id="XMLID_33_" class="st5" points="501.2,599.3 499.4,619.5 552.4,619.5 550.6,599.3    "></polygon><path id="XMLID_10_" class="st3" d="M553.6,633l-3-33.7h-49.4l-3,33.7c-0.7,7.8-5.4,15.3-12.8,21.3v0.1h81v-0.1   C559,648.3,554.3,640.8,553.6,633z"></path><path id="XMLID_13_" class="st2" d="M683.9,604.3h-316c-6.6,0-12-5.4-12-12v-206c0-6.6,5.4-12,12-12h316c6.6,0,12,5.4,12,12v206   C695.9,599,690.5,604.3,683.9,604.3z"></path><path id="XMLID_63_" class="st9" d="M683.9,604.3h-316c-6.6,0-12-5.4-12-12v-206c0-6.6,5.4-12,12-12h316c6.6,0,12,5.4,12,12v206   C695.9,599,690.5,604.3,683.9,604.3z"></path><path id="XMLID_4_" class="st3" d="M683.9,604.3h-316c-6.6,0-12-5.4-12-12v-206c0-6.6,5.4-12,12-12h316c6.6,0,12,5.4,12,12v206   C695.9,599,690.5,604.3,683.9,604.3z"></path><rect id="XMLID_68_" x="373" y="391.3" class="computer-screen" width="306" height="174.6" style="fill: rgb(246, 249, 253);"></rect><rect id="XMLID_11_" x="373" y="391.3" class="st3" width="306" height="174.6"></rect><line id="XMLID_9_" class="st3" x1="512.5" y1="585" x2="539.4" y2="585"></line></g><g id="editor-window" style="translate: none; rotate: none; scale: none; transform-origin: 0px 0px; opacity: 1;" data-svg-origin="490.9499969482422 520.9000244140625" transform="matrix(1,0,0,1,0,0)"><path id="XMLID_15_" class="st10" d="M590,509.9H400.9c-4.4,0-8-3.6-8-8V353.7c0-4.4,3.6-8,8-8H590c4.4,0,8,3.6,8,8V502   C598,506.4,594.4,509.9,590,509.9z"></path><path id="XMLID_17_" class="st3" d="M598,365.1H392.9v-11.5c0-4.4,3.6-8,8-8H590c4.4,0,8,3.6,8,8V365.1z"></path><path id="XMLID_23_" class="st11" d="M598,368.9H392.9v-15.3c0-4.4,3.6-8,8-8H590c4.4,0,8,3.6,8,8V368.9z"></path><path id="XMLID_18_" class="st3" d="M598,368.9H392.9v-15.3c0-4.4,3.6-8,8-8H590c4.4,0,8,3.6,8,8V368.9z"></path><path id="XMLID_20_" class="st3" d="M598,368.9H392.9v-15.3c0-4.4,3.6-8,8-8H590c4.4,0,8,3.6,8,8V368.9z"></path><path id="XMLID_12_" class="st3" d="M590,509.9H400.9c-4.4,0-8-3.6-8-8V353.7c0-4.4,3.6-8,8-8H590c4.4,0,8,3.6,8,8V502   C598,506.4,594.4,509.9,590,509.9z"></path><path id="editor-window-shadow" class="st5" d="M383.9,374.3v138.6c0,4.4,3.6,8,8,8H581c4.4,0,8-3.6,8-8V374.3H383.9z"></path><circle id="XMLID_24_" class="st12" cx="413" cy="357.3" r="4"></circle><circle id="XMLID_28_" class="st12" cx="426.9" cy="357.3" r="4"></circle><circle id="XMLID_38_" class="st12" cx="440.8" cy="357.3" r="4"></circle><g id="XMLID_61_"><line id="XMLID_54_" class="st13" x1="510.7" y1="387.4" x2="523.7" y2="387.4"></line><line id="XMLID_66_" class="st14" x1="444.8" y1="387.4" x2="501.1" y2="387.4"></line><line id="XMLID_29_" class="st15" x1="417" y1="387.4" x2="436.8" y2="387.4"></line></g><g id="XMLID_42_"><line id="XMLID_62_" class="st15" x1="442.8" y1="485.9" x2="485.8" y2="485.9"></line><line id="XMLID_30_" class="st14" x1="417" y1="485.9" x2="430.9" y2="485.9"></line></g><g id="XMLID_27_"><line id="XMLID_60_" class="st13" x1="501.1" y1="399.7" x2="509.2" y2="399.7"></line><line id="XMLID_45_" class="st15" x1="464.3" y1="399.7" x2="491.5" y2="399.7"></line><line id="XMLID_47_" class="st16" x1="426.9" y1="399.7" x2="454.6" y2="399.7"></line></g><g id="XMLID_49_"><line id="XMLID_59_" class="st13" x1="469.8" y1="412" x2="493.7" y2="412"></line><line id="XMLID_50_" class="st17" x1="439.8" y1="412" x2="462.3" y2="412"></line></g><g id="XMLID_65_"><line id="XMLID_58_" class="st13" x1="473" y1="424.3" x2="477.9" y2="424.3"></line><line id="XMLID_70_" class="st15" x1="453.2" y1="424.3" x2="464.3" y2="424.3"></line><line id="XMLID_67_" class="st14" x1="426.9" y1="424.3" x2="444.8" y2="424.3"></line></g><g id="XMLID_73_"><line id="XMLID_77_" class="st16" x1="465.3" y1="436.7" x2="497.2" y2="436.7"></line><line id="XMLID_74_" class="st17" x1="426.9" y1="436.7" x2="455.5" y2="436.7"></line></g><g id="XMLID_80_"><line id="XMLID_64_" class="st15" x1="502.2" y1="449" x2="519.5" y2="449"></line><line id="XMLID_84_" class="st17" x1="465.3" y1="449" x2="493" y2="449"></line><line id="XMLID_81_" class="st14" x1="439.8" y1="449" x2="455.5" y2="449"></line></g><g id="XMLID_87_"><line id="XMLID_95_" class="st13" x1="477.9" y1="461.3" x2="493" y2="461.3"></line><line id="XMLID_90_" class="st15" x1="439.8" y1="461.3" x2="467.5" y2="461.3"></line></g><g id="XMLID_98_"><line id="XMLID_71_" class="st13" x1="517.2" y1="473.6" x2="534.5" y2="473.6"></line><line id="XMLID_102_" class="st16" x1="464.3" y1="473.6" x2="507.8" y2="473.6"></line><line id="XMLID_99_" class="st13" x1="426.9" y1="473.6" x2="454.6" y2="473.6"></line></g></g><g id="app-window" style="translate: none; rotate: none; scale: none; transform-origin: 0px 0px; opacity: 1;" data-svg-origin="634.7000122070312 545.2999877929688" transform="matrix(1,0,0,1,0,0)"><path id="app-window-shadow" class="st5" d="M688.7,545.3h-116c-4.4,0-8-3.6-8-8V414.4c0-4.4,3.6-8,8-8h116c4.4,0,8,3.6,8,8   v122.9C696.7,541.8,693.1,545.3,688.7,545.3z"></path><path id="XMLID_16_" class="st18" d="M696.7,538.3h-116c-4.4,0-8-3.6-8-8V407.4c0-4.4,3.6-8,8-8h116c4.4,0,8,3.6,8,8v122.9   C704.7,534.8,701.1,538.3,696.7,538.3z"></path><path id="XMLID_14_" class="st3" d="M696.7,538.3h-116c-4.4,0-8-3.6-8-8V407.4c0-4.4,3.6-8,8-8h116c4.4,0,8,3.6,8,8v122.9   C704.7,534.8,701.1,538.3,696.7,538.3z"></path><path id="XMLID_75_" class="st19" d="M679.4,437.5h-81.6c-2.9,0-5.2-2.3-5.2-5.2v-7.8c0-2.9,2.3-5.2,5.2-5.2h81.6   c2.9,0,5.2,2.3,5.2,5.2v7.8C684.6,435.2,682.3,437.5,679.4,437.5z"></path><g id="XMLID_143_" class="st20"><path id="XMLID_78_" class="st21" d="M643.6,466.8H598c-2.9,0-5.2-2.3-5.2-5.2v-7.8c0-2.9,2.3-5.2,5.2-5.2h45.6   c2.9,0,5.2,2.3,5.2,5.2v7.8C648.7,464.5,646.4,466.8,643.6,466.8z"></path><path id="XMLID_79_" class="st21" d="M679.5,466.8h-17.7c-2.9,0-5.2-2.3-5.2-5.2v-7.8c0-2.9,2.3-5.2,5.2-5.2h17.7   c2.9,0,5.2,2.3,5.2,5.2v7.8C684.7,464.5,682.4,466.8,679.5,466.8z"></path></g><g id="XMLID_76_"><line id="XMLID_135_" class="st21" x1="592.7" y1="497.2" x2="684.6" y2="497.2"></line><line id="XMLID_136_" class="st21" x1="592.7" y1="508" x2="684.6" y2="508"></line><line id="XMLID_138_" class="st21" x1="592.7" y1="518.8" x2="648.7" y2="518.8"></line></g></g><g id="pencil2" style="translate: none; rotate: none; scale: none; transform-origin: 0px 0px; transform: matrix(1, 0, 0, 1, 0, 0);" data-svg-origin="718.617919921875 544.0875244140625" transform="matrix(1,0,0,1,0,0)"><rect id="XMLID_177_" x="722.8" y="544.4" transform="matrix(0.9932 -0.1166 0.1166 0.9932 -62.7441 88.8106)" class="st22" width="9.8" height="72.6"></rect><rect id="XMLID_31_" x="719" y="544.7" transform="matrix(0.9932 -0.1166 0.1166 0.9932 -59.0037 88.1486)" class="st18" width="9.8" height="7.4"></rect><rect id="XMLID_217_" x="719" y="544.7" transform="matrix(0.9932 -0.1166 0.1166 0.9932 -59.0037 88.1486)" class="st23" width="9.8" height="7.4"></rect><rect id="XMLID_22_" x="722.8" y="544.4" transform="matrix(0.9932 -0.1166 0.1166 0.9932 -62.7441 88.8106)" class="st23" width="9.8" height="72.6"></rect></g><g id="pencil1" style="translate: none; rotate: none; scale: none; transform-origin: 0px 0px; transform: matrix(1, 0, 0, 1, 0, 0);" data-svg-origin="737.4202880859375 557.85205078125" transform="matrix(1,0,0,1,0,0)"><rect id="XMLID_218_" x="709.9" y="589.5" transform="matrix(0.1081 -0.9941 0.9941 0.1081 74.6581 1272.0104)" class="st24" width="72.6" height="9.8"></rect><rect id="XMLID_214_" x="709.9" y="589.5" transform="matrix(0.1081 -0.9941 0.9941 0.1081 74.6581 1272.0104)" class="st25" width="72.6" height="9.8"></rect><rect id="XMLID_220_" x="746.1" y="557.1" transform="matrix(0.1081 -0.9941 0.9941 0.1081 110.0664 1246.6968)" class="st10" width="7.4" height="9.8"></rect><rect id="XMLID_211_" x="746.1" y="557.1" transform="matrix(0.1081 -0.9941 0.9941 0.1081 110.0664 1246.6968)" class="st25" width="7.4" height="9.8"></rect></g><g id="cup" style="translate: none; rotate: none; scale: none; transform-origin: 0px 0px; transform: matrix(1, 0, 0, 1, 0, 0);" data-svg-origin="715.4000244140625 594.4000244140625" transform="matrix(1,0,0,1,0,0)"><polygon id="XMLID_26_" class="st26" points="761.1,654.6 721.8,654.6 715.4,594.4 767.5,594.4    "></polygon><polygon id="XMLID_233_" class="st26" points="715.4,594.4 715.5,595.5 755.2,595.5 748.9,654.6 761.1,654.6 767.5,594.4    "></polygon><polygon id="XMLID_21_" class="st3" points="761.1,654.6 721.8,654.6 715.4,594.4 767.5,594.4    "></polygon></g></svg>